<svg width="48" height="48" viewBox="0 0 48 48" fill="none" xmlns="http://www.w3.org/2000/svg">
<g clip-path="url(#clip0_7_516)">
<rect width="48" height="48" fill="white"/>
<g clip-path="url(#clip1_7_516)" filter="url(#filter0_d_7_516)">
<path d="M24 5C20.2422 5 16.5687 6.11433 13.4442 8.20208C10.3196 10.2898 7.88436 13.2572 6.4463 16.729C5.00823 20.2008 4.63197 24.0211 5.36509 27.7067C6.09821 31.3924 7.90778 34.7778 10.565 37.435C13.2222 40.0922 16.6077 41.9018 20.2933 42.6349C23.9789 43.368 27.7992 42.9918 31.271 41.5537C34.7428 40.1156 37.7102 37.6804 39.7979 34.5558C41.8857 31.4313 43 27.7578 43 24C43 18.9609 40.9982 14.1282 37.435 10.565C33.8718 7.00178 29.0391 5 24 5ZM13 36.94V31C13 30.4696 13.2107 29.9609 13.5858 29.5858C13.9609 29.2107 14.4696 29 15 29H33C33.5304 29 34.0392 29.2107 34.4142 29.5858C34.7893 29.9609 35 30.4696 35 31V36.94C31.9341 39.5606 28.0333 41.0005 24 41.0005C19.9667 41.0005 16.066 39.5606 13 36.94ZM37 34.94V31C37 29.9391 36.5786 28.9217 35.8284 28.1716C35.0783 27.4214 34.0609 27 33 27H15C13.9391 27 12.9217 27.4214 12.1716 28.1716C11.4214 28.9217 11 29.9391 11 31V34.93C8.91284 32.4531 7.57672 29.4315 7.14893 26.2208C6.72114 23.0101 7.21949 19.7441 8.58531 16.8071C9.95114 13.8701 12.1276 11.3844 14.8585 9.64265C17.5893 7.90089 20.761 6.97555 24 6.97555C27.239 6.97555 30.4107 7.90089 33.1416 9.64265C35.8724 11.3844 38.0489 13.8701 39.4147 16.8071C40.7805 19.7441 41.2789 23.0101 40.8511 26.2208C40.4233 29.4315 39.0872 32.4531 37 34.93V34.94ZM24 25C22.6155 25 21.2622 24.5895 20.111 23.8203C18.9599 23.0511 18.0627 21.9579 17.5329 20.6788C17.003 19.3997 16.8644 17.9922 17.1345 16.6344C17.4046 15.2765 18.0713 14.0292 19.0503 13.0503C20.0292 12.0713 21.2765 11.4046 22.6344 11.1345C23.9922 10.8644 25.3997 11.003 26.6788 11.5328C27.9579 12.0627 29.0511 12.9599 29.8203 14.111C30.5895 15.2622 31 16.6155 31 18C31 19.8565 30.2625 21.637 28.9498 22.9497C27.637 24.2625 25.8565 25 24 25ZM24 13C23.0111 13 22.0444 13.2932 21.2222 13.8427C20.3999 14.3921 19.759 15.173 19.3806 16.0866C19.0022 17.0002 18.9032 18.0055 19.0961 18.9755C19.289 19.9454 19.7652 20.8363 20.4645 21.5355C21.1637 22.2348 22.0546 22.711 23.0246 22.9039C23.9945 23.0969 24.9998 22.9978 25.9134 22.6194C26.8271 22.241 27.6079 21.6001 28.1574 20.7779C28.7068 19.9556 29 18.9889 29 18C29 16.6739 28.4732 15.4021 27.5355 14.4645C26.5979 13.5268 25.3261 13 24 13Z" fill="black"/>
</g>
</g>
<defs>
<filter id="filter0_d_7_516" x="-4" y="0" width="56" height="56" filterUnits="userSpaceOnUse" color-interpolation-filters="sRGB">
<feFlood flood-opacity="0" result="BackgroundImageFix"/>
<feColorMatrix in="SourceAlpha" type="matrix" values="0 0 0 0 0 0 0 0 0 0 0 0 0 0 0 0 0 0 127 0" result="hardAlpha"/>
<feOffset dy="4"/>
<feGaussianBlur stdDeviation="2"/>
<feComposite in2="hardAlpha" operator="out"/>
<feColorMatrix type="matrix" values="0 0 0 0 0 0 0 0 0 0 0 0 0 0 0 0 0 0 0.25 0"/>
<feBlend mode="normal" in2="BackgroundImageFix" result="effect1_dropShadow_7_516"/>
<feBlend mode="normal" in="SourceGraphic" in2="effect1_dropShadow_7_516" result="shape"/>
</filter>
<clipPath id="clip0_7_516">
<rect width="48" height="48" fill="white"/>
</clipPath>
<clipPath id="clip1_7_516">
<rect width="48" height="48" fill="white"/>
</clipPath>
</defs>
</svg>
