<svg width="62" height="62" viewBox="0 0 62 62" fill="none" xmlns="http://www.w3.org/2000/svg">
<g clip-path="url(#clip0_7_521)">
<path d="M54.6892 30.7745V21.4836H46.6292V9.03549L31 0.0151367L15.3321 9.03549V21.4965H7.27209V30.7874L0.490845 34.6533V52.694L16.1458 61.7144L31 53.1708L45.8413 61.7144L61.4833 52.694V34.6533L54.6892 30.7745ZM16.9467 9.9633L31 1.88364L45.0017 9.9633V21.4836H16.9467V9.9633ZM8.89959 23.0944H53.0617V39.5758H8.89959V23.0944ZM16.1458 59.8459L2.11834 51.7791V35.6198L7.28501 32.643V41.251H30.1604V51.8435L16.1458 59.8459ZM59.8429 51.7791L45.8283 59.8459L31.8008 51.7791V41.251H54.6892V32.643L59.8558 35.6198L59.8429 51.7791ZM12.1288 26.8571H14.3504C15.116 26.798 15.8825 26.959 16.5592 27.321C16.794 27.4928 16.9812 27.7213 17.1032 27.985C17.2252 28.2487 17.278 28.539 17.2567 28.8287C17.2738 29.2297 17.1655 29.626 16.9467 29.9627C16.8581 30.1034 16.7411 30.2241 16.6033 30.3173C16.4654 30.4105 16.3096 30.474 16.1458 30.5039C16.541 30.5754 16.893 30.7972 17.1275 31.1225C17.3499 31.4815 17.458 31.8993 17.4375 32.3209C17.4705 32.637 17.4293 32.9563 17.3172 33.2538C17.2051 33.5513 17.0252 33.8186 16.7917 34.0348C16.2426 34.457 15.5592 34.6674 14.8671 34.6275H12.1288V26.8571ZM13.64 29.9369H14.5313C14.8427 29.9635 15.1546 29.8913 15.4225 29.7308C15.5176 29.6456 15.5915 29.5396 15.6386 29.4211C15.6856 29.3026 15.7045 29.1748 15.6938 29.0478C15.7053 28.9238 15.684 28.799 15.6318 28.6859C15.5797 28.5728 15.4986 28.4754 15.3967 28.4035C15.1016 28.2536 14.7711 28.1867 14.4408 28.2102H13.64V29.9369ZM13.64 31.2256V33.2616H14.6346C14.9672 33.2863 15.2975 33.1902 15.5646 32.991C15.668 32.8891 15.7481 32.7661 15.7994 32.6304C15.8507 32.4947 15.8719 32.3496 15.8617 32.2049C15.8617 31.5477 15.4354 31.2256 14.57 31.2256H13.64ZM21.2221 34.8079C20.8407 34.8274 20.4594 34.7663 20.1032 34.6287C19.7471 34.491 19.4241 34.2798 19.1554 34.009C18.6311 33.3833 18.3676 32.5807 18.4192 31.7668C18.3617 30.9408 18.6048 30.1218 19.1038 29.4601C19.3349 29.1857 19.6266 28.9683 19.956 28.8252C20.2855 28.6821 20.6437 28.6172 21.0025 28.6354C21.3384 28.6172 21.6742 28.6724 21.9866 28.797C22.2989 28.9217 22.5802 29.1128 22.8108 29.3571C23.2677 29.9145 23.4982 30.6227 23.4567 31.3415V32.1276H19.9304C19.9206 32.5216 20.0536 32.906 20.305 33.21C20.4336 33.3415 20.5889 33.444 20.7604 33.5106C20.9319 33.5773 21.1158 33.6066 21.2996 33.5966C21.6133 33.5978 21.9258 33.5588 22.2296 33.4806C22.5458 33.3945 22.853 33.278 23.1467 33.1327V34.4213C22.8832 34.5642 22.6004 34.6684 22.3071 34.7306C21.9501 34.8015 21.5856 34.8275 21.2221 34.8079ZM21.0154 29.7952C20.874 29.7866 20.7325 29.8112 20.6024 29.8672C20.4722 29.9231 20.3571 30.0088 20.2663 30.1173C20.0675 30.3863 19.959 30.711 19.9563 31.0452H22.0617C22.0745 30.7107 21.9694 30.3824 21.7646 30.1173C21.6791 29.9986 21.5667 29.9016 21.4365 29.8345C21.3063 29.7673 21.162 29.7317 21.0154 29.7308V29.7952ZM29.5792 34.692H28.0808V31.1611C28.1011 30.8277 28.0343 30.4947 27.8871 30.1947C27.8202 30.0893 27.7262 30.0038 27.6148 29.9472C27.5035 29.8905 27.3789 29.8647 27.2542 29.8725C27.0879 29.8631 26.9223 29.9004 26.7762 29.9801C26.6301 30.0598 26.5093 30.1788 26.4275 30.3235C26.2188 30.7974 26.1301 31.3151 26.1692 31.8312V34.6275H24.6708V28.687H25.8333L26.04 29.4473H26.1304C26.2712 29.1736 26.4919 28.9489 26.7633 28.803C27.056 28.6432 27.3857 28.5632 27.7192 28.571C28.0525 28.5376 28.3883 28.6029 28.6846 28.7587C28.9809 28.9146 29.2247 29.1541 29.3854 29.4473H29.5146C29.6567 29.1702 29.8827 28.9447 30.1604 28.803C30.4584 28.6449 30.7918 28.5651 31.1292 28.571C31.3869 28.5547 31.6451 28.5921 31.8875 28.6809C32.1299 28.7696 32.3511 28.9077 32.5371 29.0864C32.8982 29.5619 33.0686 30.1546 33.015 30.7488V34.6146H31.4908V31.1611C31.5111 30.8277 31.4443 30.4947 31.2971 30.1947C31.2302 30.0893 31.1362 30.0038 31.0248 29.9472C30.9135 29.8905 30.7889 29.8647 30.6642 29.8725C30.5028 29.8644 30.3422 29.8996 30.1991 29.9743C30.056 30.0491 29.9356 30.1608 29.8504 30.2978C29.6384 30.7158 29.5446 31.1836 29.5792 31.6508V34.692ZM38.0008 34.692L37.7038 33.893C37.5072 34.1887 37.2411 34.432 36.9288 34.6018C36.6047 34.7485 36.2512 34.819 35.8954 34.8079C35.6571 34.8277 35.4175 34.7939 35.1939 34.7092C34.9704 34.6245 34.7688 34.4909 34.6038 34.3183C34.2777 33.9254 34.1159 33.4224 34.1517 32.9137C34.1281 32.6495 34.1713 32.3837 34.2774 32.1406C34.3834 31.8975 34.549 31.6847 34.7588 31.5219C35.3016 31.1469 35.9456 30.9448 36.6058 30.9421H37.5617V30.6843C37.5617 30.0787 37.2775 29.7823 36.7092 29.7823C36.1676 29.8092 35.6384 29.9544 35.1592 30.2076L34.6683 29.1122C35.3056 28.7504 36.0276 28.5636 36.7608 28.571C37.3712 28.5306 37.9746 28.719 38.4529 29.0993C38.6601 29.3056 38.8204 29.5539 38.9229 29.8273C39.0254 30.1008 39.0678 30.3931 39.0471 30.6843V34.6404L38.0008 34.692ZM37.5617 31.9472H36.9804C36.6389 31.9343 36.3014 32.0241 36.0117 32.2049C35.9026 32.2866 35.8159 32.3943 35.7595 32.5182C35.7031 32.642 35.6788 32.778 35.6888 32.9137C35.6778 33.01 35.6891 33.1075 35.722 33.1987C35.7549 33.29 35.8083 33.3724 35.8783 33.4397C35.9482 33.507 36.0328 33.5573 36.1253 33.5867C36.2179 33.6162 36.316 33.624 36.4121 33.6095C36.5678 33.6155 36.723 33.5888 36.8676 33.5311C37.0122 33.4734 37.1431 33.3859 37.2517 33.2745C37.3572 33.1603 37.439 33.0263 37.4922 32.8803C37.5454 32.7343 37.5691 32.5792 37.5617 32.424V31.9472ZM42.8833 33.5064C43.2049 33.4935 43.5227 33.4327 43.8263 33.326V34.5244C43.3993 34.7272 42.9297 34.8245 42.4571 34.8079C42.2177 34.827 41.9771 34.7917 41.7534 34.7046C41.5297 34.6176 41.3287 34.4811 41.1654 34.3054C40.8597 33.879 40.7135 33.3592 40.7521 32.8363V29.8983H40.0417V29.2153L40.8554 28.6741L41.2946 27.3855H42.2504V28.6741H43.7746V29.8854H42.2375V32.759C42.228 32.8529 42.2392 32.9477 42.2705 33.0368C42.3017 33.1259 42.3522 33.207 42.4183 33.2745C42.5464 33.3873 42.7126 33.4472 42.8833 33.442V33.5064ZM49.9875 34.692H48.4892V31.1611C48.4892 30.2978 48.205 29.8725 47.6108 29.8725C47.4318 29.8587 47.2525 29.8947 47.0929 29.9766C46.9332 30.0585 46.7995 30.1831 46.7067 30.3364C46.4826 30.8013 46.3846 31.3167 46.4225 31.8312V34.6275H44.9371V26.3546H46.4225V28.0427C46.4225 28.1715 46.4225 28.4808 46.4225 28.9705V29.4473H46.5C46.6552 29.1667 46.8867 28.9357 47.1678 28.7806C47.4488 28.6256 47.7681 28.5529 48.0888 28.571C48.3588 28.553 48.6296 28.5945 48.8818 28.6925C49.134 28.7905 49.3616 28.9426 49.5483 29.138C49.9108 29.594 50.0903 30.1681 50.0521 30.7488L49.9875 34.692Z" fill="#1D1D1B"/>
</g>
<defs>
<clipPath id="clip0_7_521">
<rect width="62" height="62" fill="white"/>
</clipPath>
</defs>
</svg>
